{"title":"Million.Dollar.Baby.2004.1080p.BRRip.x264.AC3-Kay","uid":11702595,"size":3781410226,"categoryP":"video","categoryS":"hd___movies","magnet":"?xt=urn:btih:b7c068a4c915da15f597ba00ffb70c89a37554fc&amp;dn=Million.Dollar.Baby.2004.1080p.BRRip.x264.AC3-Kay&amp;tr=udp%3A%2F%2Ftracker.openbittorrent.com%3A80&amp;tr=udp%3A%2F%2Fopen.demonii.com%3A1337&amp;tr=udp%3A%2F%2Ftracker.coppersurfer.tk%3A6969&amp;tr=udp%3A%2F%2Fexodus.desync.com%3A6969","seeders":0,"leechers":3,"uploader":"thegame2012","files":7,"time":1423979926,"description":"Million.Dollar.Baby.2004.1080p.BRRip.x264.AC3-Kay\n\n &lt;a href=&quot;\nhttp://s16.postimg.org/g8j3mt86t/87447_front.jpg&quot; rel=&quot;nofollow&quot; target=&quot;_NEW&quot;&gt;\nhttp://s16.postimg.org/g8j3mt86t/87447_front.jpg&lt;/a&gt;\n\n\n &lt;a href=&quot;\nhttp://www.imdb.com/title/tt0405159/?ref_=nv_sr_2&quot; rel=&quot;nofollow&quot; target=&quot;_NEW&quot;&gt;\nhttp://www.imdb.com/title/tt0405159/?ref_=nv_sr_2&lt;/a&gt;\n\n\nGeneral\nFormat                           : Matroska\nFile size                        : 3.52 GiB\nDuration                         : 2h 12mn\nOverall bit rate                 : 3 802 Kbps\n\n\nVideo\nID                               : 1\nFormat                           : AVC\nFormat/Info                      : Advanced Video Codec\nFormat profile                   : &lt;a class=&quot;__cf_email__&quot; href=&quot;/cdn-cgi/l/email-protection&quot; data-cfemail=&quot;a6eecfc1cee6ea938896&quot;&gt;[email&amp;#160;protected]&lt;/a&gt;&lt;script cf-hash='f9e31' type=&quot;text/javascript&quot;&gt;\n/* &lt;![CDATA[ */!function(){try{var t=&quot;currentScript&quot;in document?document.currentScript:function(){for(var t=document.getElementsByTagName(&quot;script&quot;),e=t.length;e--;)if(t[e].getAttribute(&quot;cf-hash&quot;))return t[e]}();if(t&amp;&amp;t.previousSibling){var e,r,n,i,c=t.previousSibling,a=c.getAttribute(&quot;data-cfemail&quot;);if(a){for(e=&quot;&quot;,r=parseInt(a.substr(0,2),16),n=2;a.length-n;n+=2)i=parseInt(a.substr(n,2),16)^r,e+=String.fromCharCode(i);e=document.createTextNode(e),c.parentNode.replaceChild(e,c)}}}catch(u){}}();/* ]]&gt; */&lt;/script&gt;\nFormat settings, CABAC           : Yes\nFormat settings, ReFrames        : 5 frames\nDuration                         : 2h 12mn\nBit rate                         : 3 278 Kbps\nWidth                            : 1 920 pixels\nHeight                           : 800 pixels\nDisplay aspect ratio             : 2.40:1\nFrame rate                       : 23.976 fps\nResolution                       : 8 bits\nColorimetry                      : 4:2:0\nScan type                        : Progressive\nBits/(Pixel*Frame)               : 0.089\nStream size                      : 3.03 GiB (86%)\nWriting library                  : x264 core 133 r2334 a3ac64b\n\n\nAudio\nID                               : 2\nFormat                           : AC-3\nFormat/Info                      : Audio Coding 3\nCodec ID                         : A_AC3\nDuration                         : 2h 12mn\nBit rate mode                    : Constant\nBit rate                         : 448 Kbps\nChannel(s)                       : 6 channels\nChannel positions                : Front: L C R, Surround: L R, LFE\nSampling rate                    : 48.0 KHz\nStream size                      : 425 MiB (12%)\nLanguage                         : English\n\n\nScreencaps &lt;a href=&quot;\nhttp://s18.postimg.org/qie9b0m0p/Million_Dollar_Baby_2004_1080p_BRRip_x264_AC3_Ka.jpg&quot; rel=&quot;nofollow&quot; target=&quot;_NEW&quot;&gt;\nhttp://s18.postimg.org/qie9b0m0p/Million_Dollar_Baby_2004_1080p_BRRip_x264_AC3_Ka.jpg&lt;/a&gt; &lt;a href=&quot;\nhttp://s18.postimg.org/f4rpztbi1/Million_Dollar_Baby_2004_1080p_BRRip_x264_AC3_Ka.jpg&quot; rel=&quot;nofollow&quot; target=&quot;_NEW&quot;&gt;\nhttp://s18.postimg.org/f4rpztbi1/Million_Dollar_Baby_2004_1080p_BRRip_x264_AC3_Ka.jpg&lt;/a&gt; &lt;a href=&quot;\nhttp://s18.postimg.org/566rdc22h/Million_Dollar_Baby_2004_1080p_BRRip_x264_AC3_Ka.jpg&quot; rel=&quot;nofollow&quot; target=&quot;_NEW&quot;&gt;\nhttp://s18.postimg.org/566rdc22h/Million_Dollar_Baby_2004_1080p_BRRip_x264_AC3_Ka.jpg&lt;/a&gt; &lt;a href=&quot;\nhttp://s18.postimg.org/frqmpc8e1/Million_Dollar_Baby_2004_1080p_BRRip_x264_AC3_Ka.jpg&quot; rel=&quot;nofollow&quot; target=&quot;_NEW&quot;&gt;\nhttp://s18.postimg.org/frqmpc8e1/Million_Dollar_Baby_2004_1080p_BRRip_x264_AC3_Ka.jpg&lt;/a&gt; &lt;a href=&quot;\nhttp://s18.postimg.org/ixb8fjr09/Million_Dollar_Baby_2004_1080p_BRRip_x264_AC3_Ka.jpg&quot; rel=&quot;nofollow&quot; target=&quot;_NEW&quot;&gt;\nhttp://s18.postimg.org/ixb8fjr09/Million_Dollar_Baby_2004_1080p_BRRip_x264_AC3_Ka.jpg&lt;/a&gt;\n\n\n\nThanks for downloading, please remember to seed if you can!\n\n-Kay","torrent":{"xt":"urn:btih:b7c068a4c915da15f597ba00ffb70c89a37554fc","amp;dn":"Million.Dollar.Baby.2004.1080p.BRRip.x264.AC3-Kay","amp;tr":["udp%3A%2F%2Ftracker.openbittorrent.com%3A80","udp%3A%2F%2Fopen.demonii.com%3A1337","udp%3A%2F%2Ftracker.coppersurfer.tk%3A6969","udp%3A%2F%2Fexodus.desync.com%3A6969"],"infoHash":"b7c068a4c915da15f597ba00ffb70c89a37554fc","infoHashBuffer":{"type":"Buffer","data":[183,192,104,164,201,21,218,21,245,151,186,0,255,183,12,137,163,117,84,252]},"announce":[],"urlList":[]}}